<?xml version="1.0" encoding="UTF-8"?>
<svg viewBox="0 0 332.99384 381.15237" xmlns="http://www.w3.org/2000/svg" xmlns:xlink="http://www.w3.org/1999/xlink">
 <defs>
  <linearGradient id="a">
   <stop stop-color="#fff" stop-opacity="0" offset="0"/>
   <stop stop-color="#fff" stop-opacity=".362" offset=".5"/>
   <stop stop-color="#fff" stop-opacity="0" offset="1"/>
  </linearGradient>
  <linearGradient id="c" x1="25.357" x2="76.786" y1="185.93" y2="157.72" gradientUnits="userSpaceOnUse">
   <stop stop-color="#fff" stop-opacity=".232" offset="0"/>
   <stop stop-color="#fff" stop-opacity="0" offset="1"/>
  </linearGradient>
  <linearGradient id="b" x1="202.5" x2="147.86" y1="85.219" y2="117" gradientUnits="userSpaceOnUse">
   <stop stop-color="#fff" stop-opacity=".203" offset="0"/>
   <stop stop-color="#fff" stop-opacity="0" offset="1"/>
  </linearGradient>
  <linearGradient id="e" x1="166.79" x2="178.04" y1="93.255" y2="111.83" gradientTransform="matrix(-.5 .86603 .86603 .5 50.306 -30.375)" gradientUnits="userSpaceOnUse" xlink:href="#a"/>
  <linearGradient id="d" x1="166.79" x2="178.04" y1="93.255" y2="111.83" gradientUnits="userSpaceOnUse" xlink:href="#a"/>
 </defs>
 <g transform="translate(-68.017 -53.9)">
  <g transform="matrix(1.5205 0 0 1.5205 60.626 58.703)">
   <path d="m114.28 35.219c-56.806 0-102.84 46.037-102.84 102.84s46.037 102.88 102.84 102.88 102.88-46.069 102.88-102.88-46.069-102.84-102.88-102.84zm0 90.625c6.9039 0 12.5 5.4543 12.5 12.219s-5.5961 12.25-12.5 12.25-12.5-5.4856-12.5-12.25 5.5961-12.219 12.5-12.219z"/>
   <path d="m73.742 147.72-57.939 25.15s4.0554 9.6597 7.1606 15.146c3.6438 6.4383 8.8745 13.249 8.8745 13.249l51.073-36.042z" fill="url(#e)"/>
   <path d="m142.52 109.35 50.75-37.602s6.3379 8.342 9.5368 13.774c3.7538 6.3748 7.0368 14.31 7.0368 14.31l-56.75 26.21z" fill="url(#d)"/>
   <path d="m114.28 96.656c-22.88 0-41.438 18.526-41.438 41.406s18.557 41.438 41.438 41.438 41.438-18.557 41.438-41.438-18.557-41.406-41.438-41.406zm0 29.188c6.9039 0 12.5 5.4543 12.5 12.219s-5.5961 12.25-12.5 12.25-12.5-5.4856-12.5-12.25 5.5961-12.219 12.5-12.219z" fill="#666"/>
   <path d="m114.28 120.35c-9.7886 0-17.718 7.9298-17.718 17.718s7.9298 17.74 17.718 17.74 17.718-7.9509 17.718-17.74-7.9298-17.718-17.718-17.718zm0 5.8337c6.7126 0 12.154 5.3031 12.154 11.88s-5.441 11.91-12.154 11.91-12.154-5.3335-12.154-11.91 5.441-11.88 12.154-11.88z" fill="#b3b3b3"/>
   <path d="m114.3 60.165c-41.256 0-74.995 32.086-77.73 72.649 2.9323-40.138 36.424-71.811 77.311-71.811 42.813 0 77.52 34.707 77.52 77.52 0 41.475-32.58 75.392-73.539 77.468 41.378-1.8765 74.377-36.046 74.377-77.887 0-43.045-34.894-77.939-77.939-77.939zm-77.834 73.958c-0.0664 1.1829-0.092 2.3653-0.1048 3.5617 0.0064-1.2021 0.0445-2.3731 0.1048-3.5617zm-0.1048 4.3998c0 41.614 32.753 75.599 73.906 77.468-41.043-2.0805-73.688-35.959-73.906-77.468z" fill="#333"/>
   <path d="m157.08 184.47c24.513-22.64 26.952-60.218 6.3169-85.819 20.284 25.457 17.765 62.655-6.5278 85.092-25.438 23.494-65.105 21.918-88.599-3.5193-22.76-24.643-22.014-62.673 1.1828-86.383-23.555 23.821-24.411 62.232-1.4508 87.092 23.621 25.575 63.502 27.159 89.078 3.5383zm5.6605-86.655c-0.6097-0.7393-1.2433-1.4558-1.8923-2.1737 0.6561 0.7176 1.2758 1.4344 1.8923 2.1737zm-2.3522-2.6716c-22.836-24.725-60.946-26.944-86.423-5.4714 25.527-21.286 63.515-19.071 86.423 5.4714z" fill="#4d4d4d"/>
   <path d="m115.18 228.79c48.025-0.4656 86.936-38.196 89.662-85.445-2.9604 46.756-41.59 84.003-89.183 84.464-49.837 0.4832-90.629-39.526-91.112-89.363-0.4681-48.28 37.074-88.128 84.73-91.007-48.145 2.6513-86.173 42.799-85.7 91.504 0.4858 50.106 41.499 90.332 91.605 89.846zm89.769-86.97c0.064-1.3777 0.0804-2.7543 0.0817-4.1473 6e-3 1.3994-0.025 2.7629-0.0817 4.1473zm0.0723-5.1228c-0.4696-48.441-38.98-87.631-86.905-89.343 47.8 1.9586 86.182 41.027 86.905 89.343z" fill="#333"/>
   <path d="m186.76 69.397c-36.348-38.29-95.85-41.334-135.91-8.1343 39.835-32.641 98.737-29.462 134.76 8.4837 37.719 39.734 36.086 102.52-3.6483 140.24-38.492 36.541-98.673 36.185-136.69 9e-5 38.196 36.749 98.982 37.271 137.81 0.4085 39.949-37.923 41.591-101.05 3.668-141zm-137.21-7.0779c-1.1563 0.9806-2.2762 1.9985-3.3979 3.0408 1.1213-1.0532 2.2416-2.0494 3.3979-3.0408zm-4.1757 3.7791c-38.622 36.663-41.305 97.002-6.7837 136.84-34.229-39.924-31.547-100.07 6.7838-136.84z" fill="#333"/>
   <path d="m74.742 147.73-57.939 25.15s4.0554 9.6597 7.1606 15.146c3.6438 6.4383 8.8745 13.249 8.8745 13.249l51.073-36.042z" fill="url(#c)"/>
   <path d="m142.52 109.35 50.75-37.602s6.3379 8.342 9.5368 13.774c3.7538 6.3749 7.0368 14.31 7.0368 14.31l-56.75 26.21z" fill="url(#b)"/>
   <path d="m130.48 220.94c43.825-8.5999 72.976-49.716 67.425-93.374 5.2518 43.248-23.723 83.874-67.154 92.396-45.478 8.9244-89.58-20.708-98.505-66.187-8.6455-44.057 18.893-86.876 61.969-97.619-43.562 10.618-71.494 53.794-62.772 98.239 8.9726 45.724 53.313 75.517 99.037 66.545zm67.263-94.787c-0.1761-1.2704-0.3953-2.5317-0.6312-3.8053 0.2438 1.2783 0.4474 2.5301 0.6312 3.8053zm-0.8059-4.6955c-8.6744-44.205-50.551-73.477-94.655-66.884 44.031-6.3453 85.77 22.838 94.655 66.884z" fill="#4d4d4d"/>
   <path d="m96.631 87.44c-26.778 9.3454-41.408 37.813-33.994 64.76-7.1888-26.716 7.3747-54.86 33.912-64.121 27.788-9.698 58.176 4.9666 67.874 32.754 9.395 26.92-4.0683 56.313-30.183 66.938 26.431-10.591 40.11-40.243 30.632-67.4-9.7505-27.938-40.303-42.682-68.241-32.932zm-33.765 65.634c0.2249 0.7828 0.4761 1.556 0.7388 2.3355-0.2684-0.7816-0.5087-1.5503-0.7388-2.3355zm0.9286 2.8794c9.4265 27.01 38.383 41.648 65.516 33.539-27.11 7.9467-55.972-6.6476-65.516-33.539z" fill="#b3b3b3"/>
  </g>
 </g>
</svg>
